<svg width="26" height="24" viewBox="0 0 26 24" fill="none" xmlns="http://www.w3.org/2000/svg">
<path d="M11.6924 21.4829L11.6913 21.4819C8.45781 18.5498 5.83429 16.1662 4.01039 13.9347C2.19472 11.7134 1.25 9.73468 1.25 7.625C1.25 4.17761 3.93832 1.5 7.375 1.5C9.32327 1.5 11.2056 2.41084 12.4309 3.83846L13 4.50157L13.5691 3.83846C14.7944 2.41084 16.6767 1.5 18.625 1.5C22.0617 1.5 24.75 4.17761 24.75 7.625C24.75 9.73468 23.8053 11.7134 21.9896 13.9347C20.1657 16.1662 17.5422 18.5498 14.3087 21.4819L14.3076 21.4829L13 22.6733L11.6924 21.4829Z" stroke="#BABABA" stroke-width="1.5"/>
</svg>
