<svg width="26" height="26" viewBox="0 0 26 26" fill="none" xmlns="http://www.w3.org/2000/svg">
<path fill-rule="evenodd" clip-rule="evenodd" d="M20.305 4.22281C20.3055 4.22299 20.3061 4.22327 20.3071 4.22431L21.7719 5.6891C21.7729 5.69014 21.7732 5.69062 21.7734 5.69123C21.7736 5.69179 21.7736 5.69241 21.7734 5.69298C21.7732 5.69356 21.7729 5.69405 21.7719 5.69509L14.4669 13L21.7719 20.305C21.7729 20.306 21.7732 20.3065 21.7734 20.3071C21.7736 20.3077 21.7736 20.3083 21.7734 20.3089C21.7732 20.3095 21.7729 20.31 21.7719 20.311L20.3071 21.7758C20.3061 21.7768 20.3056 21.7771 20.305 21.7773C20.3044 21.7775 20.3038 21.7775 20.3032 21.7773C20.3026 21.7771 20.3021 21.7768 20.3011 21.7758L12.9961 14.4708L5.69118 21.7758C5.69017 21.7768 5.68966 21.7771 5.68907 21.7773C5.68849 21.7775 5.68788 21.7775 5.6873 21.7773C5.68674 21.7771 5.68623 21.7768 5.68519 21.7758L4.2204 20.311C4.21936 20.31 4.21908 20.3095 4.21891 20.3089C4.2187 20.3083 4.2187 20.3077 4.21891 20.3071C4.21908 20.3065 4.21936 20.306 4.2204 20.305L11.5253 13L4.2204 5.69509C4.21936 5.69407 4.21908 5.69356 4.21891 5.69298C4.21873 5.6924 4.21873 5.69178 4.21891 5.6912C4.21908 5.69064 4.21936 5.69014 4.2204 5.6891L5.68519 4.22431C5.68623 4.22327 5.68671 4.22299 5.68732 4.22281C5.68789 4.2226 5.68851 4.2226 5.68907 4.22281C5.68966 4.22299 5.69014 4.22327 5.69118 4.22431L12.9961 11.5292L20.3011 4.22431C20.3021 4.22327 20.3026 4.22299 20.3032 4.22281C20.3038 4.22264 20.3044 4.22264 20.305 4.22281H20.305Z" fill="#252324"/>
</svg>
