<svg width="21" height="22" viewBox="0 0 21 22" fill="none" xmlns="http://www.w3.org/2000/svg">
<g clip-path="url(#clip0_59_14012)">
<path d="M10.5 0.5C4.70106 0.5 0 5.20106 0 11C0 15.9241 3.39024 20.056 7.96362 21.1909V14.2088H5.79852V11H7.96362V9.61736C7.96362 6.04358 9.58104 4.3871 13.0897 4.3871C13.755 4.3871 14.9029 4.51772 15.3724 4.64792V7.55642C15.1246 7.53038 14.6941 7.51736 14.1595 7.51736C12.4379 7.51736 11.7726 8.16962 11.7726 9.86516V11H15.2023L14.6131 14.2088H11.7726V21.4231C16.9718 20.7952 21.0004 16.3684 21.0004 11C21 5.20106 16.2989 0.5 10.5 0.5Z" fill="#E31E24"/>
</g>
<defs>
<clipPath id="clip0_59_14012">
<rect width="21" height="21" fill="white" transform="translate(0 0.5)"/>
</clipPath>
</defs>
</svg>
