<svg width="21" height="22" viewBox="0 0 21 22" fill="none" xmlns="http://www.w3.org/2000/svg">
<g clip-path="url(#clip0_59_14016)">
<path d="M10.5 2.39082C13.3055 2.39082 13.6377 2.40312 14.741 2.45234C15.7664 2.49746 16.3201 2.66973 16.6893 2.81328C17.1773 3.00195 17.5301 3.23164 17.8951 3.59668C18.2643 3.96582 18.4898 4.31445 18.6785 4.80254C18.8221 5.17168 18.9943 5.72949 19.0395 6.75078C19.0887 7.8582 19.101 8.19043 19.101 10.9918C19.101 13.7973 19.0887 14.1295 19.0395 15.2328C18.9943 16.2582 18.8221 16.8119 18.6785 17.1811C18.4898 17.6691 18.2602 18.0219 17.8951 18.3869C17.526 18.7561 17.1773 18.9816 16.6893 19.1703C16.3201 19.3139 15.7623 19.4861 14.741 19.5312C13.6336 19.5805 13.3014 19.5928 10.5 19.5928C7.69453 19.5928 7.36231 19.5805 6.25899 19.5312C5.23359 19.4861 4.67988 19.3139 4.31074 19.1703C3.82266 18.9816 3.46992 18.752 3.10488 18.3869C2.73574 18.0178 2.51016 17.6691 2.32148 17.1811C2.17793 16.8119 2.00566 16.2541 1.96055 15.2328C1.91133 14.1254 1.89902 13.7932 1.89902 10.9918C1.89902 8.18633 1.91133 7.8541 1.96055 6.75078C2.00566 5.72539 2.17793 5.17168 2.32148 4.80254C2.51016 4.31445 2.73984 3.96172 3.10488 3.59668C3.47402 3.22754 3.82266 3.00195 4.31074 2.81328C4.67988 2.66973 5.2377 2.49746 6.25899 2.45234C7.36231 2.40312 7.69453 2.39082 10.5 2.39082ZM10.5 0.5C7.64942 0.5 7.29258 0.512305 6.17285 0.561523C5.05723 0.610742 4.29024 0.791211 3.62578 1.04961C2.93262 1.32031 2.34609 1.67715 1.76367 2.26367C1.17715 2.84609 0.820313 3.43262 0.549609 4.12168C0.291211 4.79023 0.110742 5.55312 0.0615234 6.66875C0.0123047 7.79258 0 8.14941 0 11C0 13.8506 0.0123047 14.2074 0.0615234 15.3271C0.110742 16.4428 0.291211 17.2098 0.549609 17.8742C0.820313 18.5674 1.17715 19.1539 1.76367 19.7363C2.34609 20.3188 2.93262 20.6797 3.62168 20.9463C4.29024 21.2047 5.05313 21.3852 6.16875 21.4344C7.28848 21.4836 7.64531 21.4959 10.4959 21.4959C13.3465 21.4959 13.7033 21.4836 14.823 21.4344C15.9387 21.3852 16.7057 21.2047 17.3701 20.9463C18.0592 20.6797 18.6457 20.3188 19.2281 19.7363C19.8105 19.1539 20.1715 18.5674 20.4381 17.8783C20.6965 17.2098 20.877 16.4469 20.9262 15.3313C20.9754 14.2115 20.9877 13.8547 20.9877 11.0041C20.9877 8.15352 20.9754 7.79668 20.9262 6.67695C20.877 5.56133 20.6965 4.79434 20.4381 4.12988C20.1797 3.43262 19.8229 2.84609 19.2363 2.26367C18.6539 1.68125 18.0674 1.32031 17.3783 1.05371C16.7098 0.795312 15.9469 0.614844 14.8313 0.565625C13.7074 0.512305 13.3506 0.5 10.5 0.5Z" fill="#E31E24"/>
<path d="M10.499 5.60645C7.52129 5.60645 5.10547 8.02227 5.10547 11C5.10547 13.9777 7.52129 16.3936 10.499 16.3936C13.4768 16.3936 15.8926 13.9777 15.8926 11C15.8926 8.02227 13.4768 5.60645 10.499 5.60645ZM10.499 14.4986C8.56719 14.4986 7.00039 12.9318 7.00039 11C7.00039 9.06816 8.56719 7.50137 10.499 7.50137C12.4309 7.50137 13.9977 9.06816 13.9977 11C13.9977 12.9318 12.4309 14.4986 10.499 14.4986Z" fill="#E31E24"/>
<path d="M17.366 5.39309C17.366 6.09036 16.8 6.65227 16.1068 6.65227C15.4096 6.65227 14.8477 6.08626 14.8477 5.39309C14.8477 4.69583 15.4137 4.13391 16.1068 4.13391C16.8 4.13391 17.366 4.69993 17.366 5.39309Z" fill="#E31E24"/>
</g>
<defs>
<clipPath id="clip0_59_14016">
<rect width="21" height="21" fill="white" transform="translate(0 0.5)"/>
</clipPath>
</defs>
</svg>
