<svg width="22" height="22" viewBox="0 0 22 22" fill="none" xmlns="http://www.w3.org/2000/svg">
<path d="M7.88391 14.119L14.1184 7.88382M9.96206 4.76622L10.4431 4.20921C11.4176 3.23478 12.7392 2.6874 14.1172 2.6875C15.4952 2.6876 16.8167 3.23516 17.791 4.20973C18.7653 5.1843 19.3126 6.50604 19.3125 7.88419C19.3124 9.26234 18.7649 10.584 17.7905 11.5584L17.2356 12.0406M12.0402 17.2366L11.6277 17.7916C10.6416 18.766 9.31121 19.3125 7.92495 19.3125C6.53869 19.3125 5.20829 18.766 4.2222 17.7916C3.73603 17.3112 3.35004 16.7391 3.0866 16.1084C2.82315 15.4777 2.6875 14.801 2.6875 14.1175C2.6875 13.434 2.82315 12.7572 3.0866 12.1266C3.35004 11.4959 3.73603 10.9238 4.2222 10.4434L4.76668 9.96222" stroke="white" stroke-width="2" stroke-linecap="round" stroke-linejoin="round"/>
</svg>
