<svg width="21" height="22" viewBox="0 0 21 22" fill="none" xmlns="http://www.w3.org/2000/svg">
<g clip-path="url(#clip0_59_14008)">
<path fill-rule="evenodd" clip-rule="evenodd" d="M21 11C21 16.799 16.299 21.5 10.5 21.5C4.70101 21.5 0 16.799 0 11C0 5.20101 4.70101 0.5 10.5 0.5C16.299 0.5 21 5.20101 21 11ZM10.8763 8.25156C9.85499 8.67635 7.81387 9.55555 4.75291 10.8892C4.25585 11.0868 3.99548 11.2802 3.97177 11.4693C3.93171 11.7888 4.33187 11.9146 4.87679 12.086C4.95091 12.1093 5.02771 12.1334 5.10645 12.159C5.64256 12.3333 6.36372 12.5372 6.73863 12.5453C7.0787 12.5526 7.45826 12.4124 7.87731 12.1247C10.7373 10.1941 12.2136 9.21833 12.3063 9.1973C12.3717 9.18246 12.4623 9.1638 12.5237 9.21836C12.5851 9.27293 12.579 9.37628 12.5725 9.404C12.5329 9.573 10.9621 11.0333 10.1492 11.7891C9.89582 12.0247 9.71606 12.1918 9.67932 12.2299C9.597 12.3154 9.51311 12.3963 9.43248 12.474C8.93442 12.9542 8.56092 13.3142 9.45316 13.9022C9.88194 14.1847 10.225 14.4184 10.5673 14.6515C10.9412 14.9061 11.314 15.16 11.7964 15.4762C11.9193 15.5568 12.0367 15.6405 12.151 15.722C12.5861 16.0321 12.9769 16.3107 13.4598 16.2663C13.7403 16.2405 14.0302 15.9767 14.1773 15.1898C14.5252 13.3302 15.2089 9.30115 15.3669 7.64085C15.3808 7.49539 15.3634 7.30922 15.3494 7.2275C15.3354 7.14578 15.3062 7.02934 15.1999 6.94315C15.0741 6.84107 14.8799 6.81954 14.7931 6.82107C14.3981 6.82803 13.7922 7.03871 10.8763 8.25156Z" fill="#E31E24"/>
</g>
<defs>
<clipPath id="clip0_59_14008">
<rect width="21" height="21" fill="white" transform="translate(0 0.5)"/>
</clipPath>
</defs>
</svg>
