<svg width="21" height="22" viewBox="0 0 21 22" fill="none" xmlns="http://www.w3.org/2000/svg">
<path d="M0 21.5L1.47612 16.1074C0.565249 14.5289 0.0866248 12.7395 0.0874998 10.9046C0.0901248 5.16812 4.75824 0.5 10.4939 0.5C13.2772 0.500875 15.89 1.585 17.8552 3.552C19.8196 5.519 20.9011 8.1335 20.9002 10.9143C20.8976 16.6516 16.2295 21.3197 10.4939 21.3197C8.75261 21.3189 7.03673 20.8822 5.51686 20.0527L0 21.5ZM5.77236 18.1689C7.23886 19.0395 8.63886 19.561 10.4904 19.5619C15.2573 19.5619 19.1406 15.6821 19.1432 10.9125C19.145 6.13325 15.2801 2.25875 10.4974 2.257C5.72686 2.257 1.84625 6.13675 1.8445 10.9055C1.84362 12.8524 2.41412 14.3101 3.37224 15.8352L2.49812 19.0273L5.77236 18.1689ZM15.736 13.3879C15.6712 13.2794 15.498 13.2146 15.2372 13.0842C14.9773 12.9539 13.699 12.3247 13.4601 12.2381C13.2221 12.1515 13.0488 12.1077 12.8747 12.3685C12.7015 12.6284 12.2027 13.2146 12.0513 13.3879C11.9 13.5611 11.7477 13.583 11.4878 13.4526C11.228 13.3223 10.3897 13.0484 9.3966 12.162C8.62398 11.4725 8.10161 10.6211 7.95023 10.3604C7.79886 10.1005 7.93448 9.95963 8.06398 9.83012C8.18123 9.71375 8.32386 9.5265 8.45423 9.37425C8.58636 9.22375 8.62923 9.11525 8.71673 8.94112C8.80336 8.76788 8.76048 8.61563 8.69486 8.48525C8.62923 8.35575 8.10948 7.07562 7.89336 6.555C7.68161 6.04838 7.46723 6.11662 7.30798 6.10875L6.80924 6.1C6.63599 6.1 6.35424 6.16475 6.11624 6.4255C5.87824 6.68625 5.20624 7.3145 5.20624 8.59463C5.20624 9.87475 6.13811 11.1111 6.26761 11.2844C6.39799 11.4576 8.10073 14.0844 10.7091 15.2105C11.3295 15.4783 11.8142 15.6384 12.1913 15.7582C12.8143 15.956 13.3813 15.928 13.8293 15.8615C14.329 15.7871 15.3676 15.2324 15.5846 14.6251C15.8016 14.017 15.8016 13.4964 15.736 13.3879Z" fill="#E31E24"/>
</svg>
