<svg width="30" height="30" viewBox="0 0 30 30" fill="none" xmlns="http://www.w3.org/2000/svg">
<path d="M13.6924 24.4829L13.6913 24.4819C10.4578 21.5498 7.83429 19.1662 6.01039 16.9347C4.19472 14.7134 3.25 12.7347 3.25 10.625C3.25 7.17761 5.93832 4.5 9.375 4.5C11.3233 4.5 13.2056 5.41084 14.4309 6.83846L15 7.50157L15.5691 6.83846C16.7944 5.41084 18.6767 4.5 20.625 4.5C24.0617 4.5 26.75 7.17761 26.75 10.625C26.75 12.7347 25.8053 14.7134 23.9896 16.9347C22.1657 19.1662 19.5422 21.5498 16.3087 24.4819L16.3076 24.4829L15 25.6733L13.6924 24.4829Z" stroke="#252324" stroke-width="1.5"/>
</svg>
