<svg width="24" height="24" viewBox="0 0 24 24" fill="none" xmlns="http://www.w3.org/2000/svg">
<path d="M22.9676 15.7853L17.4317 13.3044C17.1808 13.197 16.9072 13.1537 16.6354 13.1787C16.3637 13.2037 16.1025 13.296 15.8754 13.4474C15.8524 13.4622 15.8305 13.4787 15.8098 13.4966L12.9164 15.9576C12.8864 15.9739 12.853 15.9831 12.8188 15.9843C12.7846 15.9855 12.7507 15.9788 12.7195 15.9646C10.8598 15.0669 8.93322 13.1521 8.03204 11.3181C8.01704 11.2875 8.00924 11.2538 8.00924 11.2197C8.00924 11.1855 8.01704 11.1519 8.03204 11.1212L10.5012 8.19153C10.5189 8.16988 10.5354 8.14718 10.5504 8.12357C10.6997 7.89564 10.7899 7.63413 10.8128 7.36263C10.8357 7.09114 10.7906 6.81821 10.6817 6.56849L8.21837 1.04193C8.07849 0.715686 7.83656 0.443615 7.52891 0.266548C7.22126 0.0894808 6.86448 0.0169684 6.51212 0.0598937C4.98075 0.261218 3.57507 1.01326 2.55777 2.17548C1.54048 3.3377 0.981179 4.83058 0.984389 6.37513C0.984389 15.5509 8.44923 23.0158 17.625 23.0158C19.1695 23.0187 20.6622 22.4593 21.8244 21.4421C22.9866 20.4248 23.7387 19.0193 23.9402 17.488C23.9831 17.1373 23.9116 16.7821 23.7363 16.4753C23.5611 16.1685 23.2915 15.9265 22.9676 15.7853ZM17.625 21.6095C9.22501 21.6095 2.39064 14.7751 2.39064 6.37513C2.38672 5.1727 2.82072 4.00998 3.61155 3.1042C4.40238 2.19843 5.49594 1.61156 6.6879 1.45325H6.71486C6.76208 1.45413 6.80794 1.46926 6.84642 1.49666C6.88489 1.52405 6.9142 1.56243 6.93048 1.60677L9.40314 7.12747C9.41724 7.15817 9.42454 7.19154 9.42454 7.22532C9.42454 7.2591 9.41724 7.29248 9.40314 7.32317L6.92931 10.2599C6.91094 10.2809 6.8941 10.3033 6.87892 10.3267C6.72412 10.563 6.63297 10.8353 6.61428 11.1172C6.5956 11.3991 6.65002 11.681 6.77228 11.9357C7.81173 14.0638 9.95626 16.1919 12.1078 17.2314C12.364 17.353 12.6473 17.4061 12.9301 17.3855C13.2129 17.365 13.4856 17.2715 13.7215 17.1142C13.7438 17.099 13.766 17.0826 13.7871 17.065L16.6793 14.604C16.7079 14.5887 16.7394 14.5797 16.7718 14.5777C16.8041 14.5756 16.8366 14.5806 16.8668 14.5923L22.4039 17.0732C22.4492 17.0924 22.4872 17.1254 22.5126 17.1675C22.5381 17.2096 22.5496 17.2585 22.5457 17.3075C22.3882 18.5001 21.8019 19.5944 20.8963 20.3861C19.9908 21.1779 18.8279 21.6127 17.625 21.6095Z" fill="#252324"/>
</svg>
